<?xml version="1.0" encoding="utf-8"?>
<!-- Generator: Adobe Illustrator 18.1.0, SVG Export Plug-In . SVG Version: 6.00 Build 0)  -->
<svg version="1.1" id="Layer_1" xmlns="http://www.w3.org/2000/svg" xmlns:xlink="http://www.w3.org/1999/xlink" x="0px" y="0px"
	 viewBox="0 0 596 181" enable-background="new 0 0 596 181" xml:space="preserve">
<g>
	<path d="M20.6,29.9l0.4-0.5l4.6,2.9L25.1,33L20.6,29.9z M20.6,33.9l0.4-0.5l4.6,2.9l-0.4,0.5L20.6,33.9z M20.6,37.7l0.4-0.5
		l4.6,2.9l-0.4,0.7L20.6,37.7z M20.6,41.7l0.4-0.7l4.6,3.1l-0.4,0.5L20.6,41.7z M20.6,45.6l0.4-0.5l4.6,2.9l-0.4,0.7L20.6,45.6z
		 M20.6,49.6l0.4-0.7l4.6,3.1l-0.4,0.5L20.6,49.6z M20.6,53.4l0.4-0.5l4.6,2.9l-0.4,0.5L20.6,53.4z M20.6,57.4l0.4-0.7l4.6,3.1
		l-0.4,0.5L20.6,57.4z M20.6,61.2l0.4-0.5l4.6,2.9l-0.4,0.5L20.6,61.2z M20.6,65.3l0.4-0.7l4.6,2.9l-0.4,0.7L20.6,65.3z M20.6,69.1
		l0.4-0.5l4.6,2.9L25.1,72L20.6,69.1z M20.6,73.1l0.4-0.7l4.6,2.9L25.1,76L20.6,73.1z M20.6,76.9l0.4-0.5l4.6,2.9l-0.4,0.5
		L20.6,76.9z M20.6,80.7l0.4-0.5l4.6,2.9l-0.4,0.7L20.6,80.7z M20.6,84.8l0.4-0.5l4.6,2.9l-0.4,0.5L20.6,84.8z M20.6,88.6l0.4-0.5
		l4.6,2.9l-0.4,0.7L20.6,88.6z M20.6,92.6l0.4-0.7l4.6,3.1l-0.4,0.5L20.6,92.6z M20.6,96.4l0.4-0.5l4.6,2.9l-0.4,0.7L20.6,96.4z
		 M20.6,100.4l0.4-0.7l4.6,3.1l-0.4,0.5L20.6,100.4z M20.6,104.3l0.4-0.5l4.6,2.9l-0.4,0.5L20.6,104.3z M20.6,108.3l0.4-0.7l4.6,3.1
		l-0.4,0.5L20.6,108.3z M20.6,112.1l0.4-0.5l4.6,2.9l-0.4,0.5L20.6,112.1z M20.6,116.1l0.4-0.7l4.6,2.9l-0.4,0.7L20.6,116.1z
		 M20.6,119.9l0.4-0.5l4.6,2.9l-0.4,0.5L20.6,119.9z M20.6,124l0.4-0.7l4.6,2.9l-0.4,0.7L20.6,124z M20.6,127.8l0.4-0.5l4.6,2.9
		l-0.4,0.5L20.6,127.8z M20.6,131.6l0.4-0.5l4.6,2.9l-0.4,0.7L20.6,131.6z M20.6,135.6l0.4-0.5l4.6,2.9l-0.4,0.5L20.6,135.6z
		 M20.6,139.4l0.4-0.5l4.6,2.9l-0.4,0.7L20.6,139.4z M20.6,143.5l0.4-0.7l4.6,3.1l-0.4,0.5L20.6,143.5z M20.6,147.3l0.4-0.5
		l13.3,8.6l-0.4,0.7L20.6,147.3z M20.6,151.3l0.4-0.7l7.3,4.7l-0.4,0.7L20.6,151.3z M20.6,155.1l0.4-0.5l1.3,0.7l-0.4,0.7
		L20.6,155.1z M21.1,26.4l0.5-0.5l3.8,2.6L25.1,29L21.1,26.4z M22.8,23.5l0.4-0.5l2.4,1.5l-0.4,0.7L22.8,23.5z M24,20.4l0.4-0.5
		l1.1,0.7l-0.4,0.5L24,20.4z M57.2,108.5c0,11.3-11.8,11.5-11.8,11.5h-7.1v26.4H26.4V21.3h19.1c0,0,11.7-0.2,11.7,10.9V108.5z
		 M27.3,147.8l0.4-0.7l9.5,6.2l-0.4,0.5L27.3,147.8z M28.4,19.5l0.4-0.7l1.8,1.1l-0.5,0.7L28.4,19.5z M52.5,33.5
		c0-4.9-3.5-7.8-8-8.2H31.7v115.9h1.5V115h10.6c4.2,0,8.8-2.2,8.8-8V33.5z M51,107c0,6.6-7.3,6.6-7.3,6.6H33.2V26.8h10.6
		c0,0,7.3,0.2,7.3,6.7V107z M33.3,147.8l0.4-0.7l4.9,3.3l-0.4,0.5L33.3,147.8z M34.4,19.5l0.4-0.7l1.8,1.1l-0.5,0.7L34.4,19.5z
		 M38.4,109c0,0,6.9,0.9,6.9-2.2V33.5c0-3.1-6.9-2-6.9-2V109z M39.2,124.1l0.4-0.5l6.7,4.4l-0.4,0.7L39.2,124.1z M39.2,128.1
		l0.4-0.7l2.2,1.5l-0.4,0.7L39.2,128.1z M39.2,132l0.4-0.5l1.1,0.7l-0.4,0.5L39.2,132z M39.2,136l0.4-0.7l1.1,0.7l-0.4,0.7L39.2,136
		z M39.2,139.8l0.4-0.5l1.1,0.7l-0.4,0.5L39.2,139.8z M39.2,143.8l0.4-0.7l1.1,0.7l-0.4,0.7L39.2,143.8z M39.2,147.6l0.4-0.5
		l1.1,0.7l-0.4,0.5L39.2,147.6z M39.3,34.3l0.4-0.5l4.7,3.1l-0.4,0.5L39.3,34.3z M39.3,38.3l0.4-0.7l4.7,3.1l-0.4,0.7L39.3,38.3z
		 M39.3,42.1l0.4-0.5l4.7,3.1l-0.4,0.5L39.3,42.1z M39.3,46.1l0.4-0.7l4.7,3.1l-0.4,0.7L39.3,46.1z M39.3,49.9l0.4-0.5l4.7,3.1
		L44.1,53L39.3,49.9z M39.3,53.9l0.4-0.7l4.7,3.1L44.1,57L39.3,53.9z M39.3,57.8l0.4-0.5l4.7,3.1l-0.4,0.5L39.3,57.8z M39.3,61.8
		l0.4-0.7l4.7,3.1l-0.4,0.7L39.3,61.8z M39.3,65.6l0.4-0.5l4.7,3.1l-0.4,0.5L39.3,65.6z M39.3,69.6l0.4-0.7l4.7,3.1l-0.4,0.5
		L39.3,69.6z M39.3,73.5l0.4-0.5l4.7,3.1l-0.4,0.5L39.3,73.5z M39.3,77.3l0.4-0.5l4.7,3.1l-0.4,0.5L39.3,77.3z M39.3,81.3l0.4-0.5
		l4.7,2.9l-0.4,0.7L39.3,81.3z M39.3,85.1l0.4-0.5l4.7,3.1l-0.4,0.5L39.3,85.1z M39.3,89.1l0.4-0.5l4.7,2.9l-0.4,0.7L39.3,89.1z
		 M39.3,93l0.4-0.5l4.7,3.1l-0.4,0.5L39.3,93z M39.3,97l0.4-0.7l4.7,3.1l-0.4,0.7L39.3,97z M39.3,100.8l0.4-0.5l4.7,3.1l-0.4,0.5
		L39.3,100.8z M39.3,104.8l0.4-0.7l4.6,2.9l-0.4,0.7L39.3,104.8z M40.4,19.5l0.4-0.7l1.8,1.1l-0.5,0.7L40.4,19.5z M40.8,121.4
		l0.4-0.7l8.6,5.7l-0.4,0.5L40.8,121.4z M43.2,33l0.5-0.5l0.5,0.4l-0.4,0.5L43.2,33z M46.6,19.5l0.4-0.5l2.4,1.5L49,21.1L46.6,19.5z
		 M46.6,121.2l0.4-0.5l5.3,3.5l-0.4,0.5L46.6,121.2z M50.8,119.9l0.4-0.5l2.9,1.8l-0.5,0.7L50.8,119.9z M53.9,118.1l0.4-0.5l1.3,0.7
		l-0.5,0.5L53.9,118.1z M56.1,25.7l0.4-0.5l2.2,1.3l-0.4,0.7L56.1,25.7z M56.1,115.7l0.5-0.5l0.9,0.5l-0.4,0.5L56.1,115.7z
		 M57.6,112.6l0.4-0.5l1.1,0.5l-0.5,0.7L57.6,112.6z M57.9,30.8l0.5-0.5l1.1,0.7l-0.4,0.5L57.9,30.8z M58.1,34.8l0.4-0.5l1.1,0.5
		l-0.4,0.7L58.1,34.8z M58.1,38.6l0.4-0.5l1.1,0.7l-0.4,0.5L58.1,38.6z M58.1,42.6l0.4-0.7l1.1,0.7l-0.4,0.7L58.1,42.6z M58.1,46.5
		l0.4-0.5l1.1,0.7l-0.4,0.5L58.1,46.5z M58.1,50.5l0.4-0.7l1.1,0.7l-0.4,0.7L58.1,50.5z M58.1,54.3l0.4-0.5l1.1,0.7L59.2,55
		L58.1,54.3z M58.1,58.3l0.4-0.7l1.1,0.7l-0.4,0.7L58.1,58.3z M58.1,62.2l0.4-0.5l1.1,0.7l-0.4,0.5L58.1,62.2z M58.1,66.2l0.4-0.7
		l1.1,0.7l-0.4,0.5L58.1,66.2z M58.1,70l0.4-0.5l1.1,0.7l-0.4,0.5L58.1,70z M58.1,74l0.4-0.7l1.1,0.7l-0.4,0.5L58.1,74z M58.1,77.8
		l0.4-0.5l1.1,0.7l-0.4,0.5L58.1,77.8z M58.1,81.7l0.4-0.5l1.1,0.7l-0.4,0.5L58.1,81.7z M58.1,85.7l0.4-0.5l1.1,0.5l-0.4,0.7
		L58.1,85.7z M58.1,89.5l0.4-0.5l1.1,0.7l-0.4,0.5L58.1,89.5z M58.1,93.5l0.4-0.7l1.1,0.7l-0.4,0.7L58.1,93.5z M58.1,97.3l0.4-0.5
		l1.1,0.7l-0.4,0.5L58.1,97.3z M58.1,101.3l0.4-0.7l1.1,0.7l-0.4,0.7L58.1,101.3z M58.1,105.2l0.4-0.5l1.1,0.7l-0.4,0.5L58.1,105.2z
		 M58.1,109.2l0.4-0.7l1.1,0.7l-0.4,0.5L58.1,109.2z"/>
	<path d="M92.5,109l-2.2,37.2H77.8l9.5-125.1h19.9l7.5,125.1h-12.4l-1.6-37.2H92.5z M105.5,104.8l2,37.4h1.5l-6.2-116.5H91.4
		l-8,116.5h1.3l2.7-37.4H105.5z M101.3,27.2l4.2,76.2h-18l5.3-76.2H101.3z M96.9,31.5l-4,68h7.3L96.9,31.5z"/>
	<path d="M161.2,146.4L143,31.5l-0.7-8.2h-0.9l0.9,9.7v113.4H140V21.3h3.3l17.9,113.4l1.1,10h1.1l-0.9-9.8V21.3h2.2v125.1H161.2z"/>
	<path d="M190.3,153.8l-6.4,8.4h-4.2v-8.4h5.5l-5.5-4.9v-13.7h10.6V153.8z"/>
	<path d="M222,31.9v65.6h10.2v11.7H222v37.2h-11.8V21.3h23.5v10.6H222z M211.1,145.3h9.8v-37.2h10.2v-9.5h-10.2V30.8h11.7v-8.4
		h-21.5V145.3z M229.5,25.9v1.5h-12.8v75.3h10.6v1.5h-10.6v36.6h-1.5V25.9H229.5z"/>
	<path d="M270.2,147.6c-4,0-14-1.3-14-11.8v-103c0-11.5,8.4-12.9,14-12.9h3.3c6.6,0,13.9,1.5,13.9,11.1v102.1
		c0,13.3-8.8,14.6-13.9,14.6H270.2z M268,136.7c0.2,3.6,7.3,3.6,7.5,0V32.3c0-4.6-7.5-4.4-7.5,0V136.7z"/>
	<path d="M322.8,120.3v26.1h-12V21.3h17.7c4.6,0,13.1,0.7,13.1,11.1V109c-0.2,6.9-5.3,8.6-8.8,9.7l13.3,27.7h-12.8L322.8,120.3z
		 M332.5,117.6c3.5-1.1,7.8-2.4,8-8.6V32.4c0-9.3-7.5-10-12-10h-16.6v122.9h9.8V119h1.8l10.6,26.3h10.4l-13.1-27.3L332.5,117.6z
		 M336.8,106.8c0,5.3-3.3,8.2-10.2,8.2l11.5,25.9l-1.3,0.5l-11.7-26.3l-7.8,0.4v25.5h-1.5V25.9h12.2c4.9,0,8.4,2,8.8,7.8V106.8z
		 M328.1,113.6c0,0,3.5,0,5.5-2c1.3-1.1,1.8-2.7,1.8-4.7V33.9c0-1.8-0.4-3.5-1.6-4.6c-2-2.2-5.7-2-5.7-2h-10.8v86.8L328.1,113.6z
		 M329.5,107.4c0,2.9-6.6,2.2-6.7,2.2v-78c0,0,6.7-1.1,6.7,2V107.4z M328.4,33.5c0-1.3-2.9-1.3-4.6-1.1v76c1.6,0.2,4.6,0.2,4.6-1.1
		V33.5z"/>
	<path d="M390.2,98.1c3.6,0.5,8.4,2.6,8.4,9.7V144c0.2,1.6,1.3,2.6,1.3,2.6h-12.4c0-0.2-0.9-1.1-0.7-2.4v-32.8
		c-0.2-2.2-3.3-3.5-7.1-2v37.2h-12V21.5h12v74.9l10.2-74.9h12L390.2,98.1z M394.6,25.7l-11.1,76l-9.3,0.4V25.7h-1.5v115.4h1.5v-37.6
		l10.2-0.4c0,0,3.5,0,5.5,2c1.3,1.3,1.8,2.7,1.8,4.7v31.2h1.5v-31.5c0-2.2-0.7-4-2.2-5.3c-2-2-4.9-2.4-6-2.6l11.1-76H394.6z"/>
	<path d="M424.7,153.8l-6.4,8.4h-4.2v-8.4h5.5l-5.5-4.9v-13.7h10.6V153.8z"/>
	<path d="M443.6,29.9l0.4-0.5l4.6,2.9l-0.4,0.7L443.6,29.9z M443.6,33.9l0.4-0.5l4.6,2.9l-0.4,0.5L443.6,33.9z M443.6,37.7l0.4-0.5
		l4.6,2.9l-0.4,0.7L443.6,37.7z M443.6,41.7L444,41l4.6,3.1l-0.4,0.5L443.6,41.7z M443.6,45.6L444,45l4.6,2.9l-0.4,0.7L443.6,45.6z
		 M443.6,49.6l0.4-0.7l4.6,3.1l-0.4,0.5L443.6,49.6z M443.6,53.4l0.4-0.5l4.6,2.9l-0.4,0.5L443.6,53.4z M443.6,57.4l0.4-0.7l4.6,3.1
		l-0.4,0.5L443.6,57.4z M443.6,61.2l0.4-0.5l4.6,2.9l-0.4,0.5L443.6,61.2z M443.6,65.3l0.4-0.7l4.6,2.9l-0.4,0.7L443.6,65.3z
		 M443.6,69.1l0.4-0.5l4.6,2.9l-0.4,0.5L443.6,69.1z M443.6,73.1l0.4-0.7l4.6,2.9l-0.4,0.7L443.6,73.1z M443.6,76.9l0.4-0.5l4.6,2.9
		l-0.4,0.5L443.6,76.9z M443.6,80.7l0.4-0.5l4.6,2.9l-0.4,0.7L443.6,80.7z M443.6,84.8l0.4-0.5l4.6,2.9l-0.4,0.5L443.6,84.8z
		 M443.6,88.6L444,88l4.6,2.9l-0.4,0.7L443.6,88.6z M443.6,92.6l0.4-0.7l4.6,3.1l-0.4,0.5L443.6,92.6z M443.6,96.4l0.4-0.5l4.6,2.9
		l-0.4,0.7L443.6,96.4z M443.6,100.4l0.4-0.7l4.6,3.1l-0.4,0.5L443.6,100.4z M443.6,104.3l0.4-0.5l4.6,2.9l-0.4,0.5L443.6,104.3z
		 M443.6,108.3l0.4-0.7l4.6,3.1l-0.4,0.5L443.6,108.3z M443.6,112.1l0.4-0.5l4.6,2.9l-0.4,0.5L443.6,112.1z M443.6,116.1l0.4-0.7
		l4.6,2.9l-0.4,0.7L443.6,116.1z M443.6,119.9l0.4-0.5l4.6,2.9l-0.4,0.5L443.6,119.9z M443.6,124l0.4-0.7l4.6,2.9l-0.4,0.7
		L443.6,124z M443.6,127.8l0.4-0.5l4.6,2.9l-0.4,0.5L443.6,127.8z M443.6,131.6l0.4-0.5l4.6,2.9l-0.4,0.7L443.6,131.6z M443.6,135.6
		l0.4-0.5l4.6,2.9l-0.4,0.5L443.6,135.6z M443.6,139.4l0.4-0.5l4.6,2.9l-0.4,0.7L443.6,139.4z M443.6,143.5l0.4-0.7l4.6,3.1
		l-0.4,0.5L443.6,143.5z M443.6,147.3l0.4-0.5l13.3,8.6L457,156L443.6,147.3z M443.6,151.3l0.4-0.7l7.3,4.7l-0.4,0.7L443.6,151.3z
		 M443.6,155.1l0.4-0.5l1.3,0.7l-0.4,0.7L443.6,155.1z M444.2,26.4l0.5-0.5l3.8,2.6l-0.4,0.5L444.2,26.4z M445.8,23.5l0.4-0.5
		l2.4,1.5l-0.4,0.7L445.8,23.5z M447.1,20.4l0.4-0.5l1.1,0.7l-0.4,0.5L447.1,20.4z M480.3,108.5c0,11.3-11.8,11.5-11.8,11.5h-7.1
		v26.4h-11.8V21.3h19.1c0,0,11.7-0.2,11.7,10.9V108.5z M450.4,147.8l0.4-0.7l9.5,6.2l-0.4,0.5L450.4,147.8z M451.5,19.5l0.4-0.7
		l1.8,1.1l-0.5,0.7L451.5,19.5z M475.6,33.5c0-4.9-3.5-7.8-8-8.2h-12.8v115.9h1.5V115h10.6c4.2,0,8.8-2.2,8.8-8V33.5z M474.1,107
		c0,6.6-7.3,6.6-7.3,6.6h-10.6V26.8h10.6c0,0,7.3,0.2,7.3,6.7V107z M456.4,147.8l0.4-0.7l4.9,3.3l-0.4,0.5L456.4,147.8z M457.5,19.5
		l0.4-0.7l1.8,1.1l-0.5,0.7L457.5,19.5z M461.5,109c0,0,6.9,0.9,6.9-2.2V33.5c0-3.1-6.9-2-6.9-2V109z M462.2,124.1l0.4-0.5l6.7,4.4
		l-0.4,0.7L462.2,124.1z M462.2,128.1l0.4-0.7l2.2,1.5l-0.4,0.7L462.2,128.1z M462.2,132l0.4-0.5l1.1,0.7l-0.4,0.5L462.2,132z
		 M462.2,136l0.4-0.7l1.1,0.7l-0.4,0.7L462.2,136z M462.2,139.8l0.4-0.5l1.1,0.7l-0.4,0.5L462.2,139.8z M462.2,143.8l0.4-0.7
		l1.1,0.7l-0.4,0.7L462.2,143.8z M462.2,147.6l0.4-0.5l1.1,0.7l-0.4,0.5L462.2,147.6z M462.4,34.3l0.4-0.5l4.7,3.1l-0.4,0.5
		L462.4,34.3z M462.4,38.3l0.4-0.7l4.7,3.1l-0.4,0.7L462.4,38.3z M462.4,42.1l0.4-0.5l4.7,3.1l-0.4,0.5L462.4,42.1z M462.4,46.1
		l0.4-0.7l4.7,3.1l-0.4,0.7L462.4,46.1z M462.4,49.9l0.4-0.5l4.7,3.1l-0.4,0.5L462.4,49.9z M462.4,53.9l0.4-0.7l4.7,3.1l-0.4,0.7
		L462.4,53.9z M462.4,57.8l0.4-0.5l4.7,3.1l-0.4,0.5L462.4,57.8z M462.4,61.8l0.4-0.7l4.7,3.1l-0.4,0.7L462.4,61.8z M462.4,65.6
		l0.4-0.5l4.7,3.1l-0.4,0.5L462.4,65.6z M462.4,69.6l0.4-0.7l4.7,3.1l-0.4,0.5L462.4,69.6z M462.4,73.5l0.4-0.5l4.7,3.1l-0.4,0.5
		L462.4,73.5z M462.4,77.3l0.4-0.5l4.7,3.1l-0.4,0.5L462.4,77.3z M462.4,81.3l0.4-0.5l4.7,2.9l-0.4,0.7L462.4,81.3z M462.4,85.1
		l0.4-0.5l4.7,3.1l-0.4,0.5L462.4,85.1z M462.4,89.1l0.4-0.5l4.7,2.9l-0.4,0.7L462.4,89.1z M462.4,93l0.4-0.5l4.7,3.1l-0.4,0.5
		L462.4,93z M462.4,97l0.4-0.7l4.7,3.1l-0.4,0.7L462.4,97z M462.4,100.8l0.4-0.5l4.7,3.1l-0.4,0.5L462.4,100.8z M462.4,104.8
		l0.4-0.7l4.6,2.9l-0.4,0.7L462.4,104.8z M463.5,19.5l0.4-0.7l1.8,1.1l-0.5,0.7L463.5,19.5z M463.9,121.4l0.4-0.7l8.6,5.7l-0.4,0.5
		L463.9,121.4z M466.3,33l0.5-0.5l0.5,0.4l-0.4,0.5L466.3,33z M469.7,19.5l0.4-0.5l2.4,1.5l-0.4,0.7L469.7,19.5z M469.7,121.2
		l0.4-0.5l5.3,3.5l-0.4,0.5L469.7,121.2z M473.9,119.9l0.4-0.5l2.9,1.8l-0.5,0.7L473.9,119.9z M477,118.1l0.4-0.5l1.3,0.7l-0.5,0.5
		L477,118.1z M479.2,25.7l0.4-0.5l2.2,1.3l-0.4,0.7L479.2,25.7z M479.2,115.7l0.5-0.5l0.9,0.5l-0.4,0.5L479.2,115.7z M480.7,112.6
		l0.4-0.5l1.1,0.5l-0.5,0.7L480.7,112.6z M481,30.8l0.5-0.5l1.1,0.7l-0.4,0.5L481,30.8z M481.2,34.8l0.4-0.5l1.1,0.5l-0.4,0.7
		L481.2,34.8z M481.2,38.6l0.4-0.5l1.1,0.7l-0.4,0.5L481.2,38.6z M481.2,42.6l0.4-0.7l1.1,0.7l-0.4,0.7L481.2,42.6z M481.2,46.5
		l0.4-0.5l1.1,0.7l-0.4,0.5L481.2,46.5z M481.2,50.5l0.4-0.7l1.1,0.7l-0.4,0.7L481.2,50.5z M481.2,54.3l0.4-0.5l1.1,0.7l-0.4,0.5
		L481.2,54.3z M481.2,58.3l0.4-0.7l1.1,0.7l-0.4,0.7L481.2,58.3z M481.2,62.2l0.4-0.5l1.1,0.7l-0.4,0.5L481.2,62.2z M481.2,66.2
		l0.4-0.7l1.1,0.7l-0.4,0.5L481.2,66.2z M481.2,70l0.4-0.5l1.1,0.7l-0.4,0.5L481.2,70z M481.2,74l0.4-0.7l1.1,0.7l-0.4,0.5L481.2,74
		z M481.2,77.8l0.4-0.5l1.1,0.7l-0.4,0.5L481.2,77.8z M481.2,81.7l0.4-0.5l1.1,0.7l-0.4,0.5L481.2,81.7z M481.2,85.7l0.4-0.5
		l1.1,0.5l-0.4,0.7L481.2,85.7z M481.2,89.5l0.4-0.5l1.1,0.7l-0.4,0.5L481.2,89.5z M481.2,93.5l0.4-0.7l1.1,0.7l-0.4,0.7L481.2,93.5
		z M481.2,97.3l0.4-0.5l1.1,0.7l-0.4,0.5L481.2,97.3z M481.2,101.3l0.4-0.7l1.1,0.7l-0.4,0.7L481.2,101.3z M481.2,105.2l0.4-0.5
		l1.1,0.7l-0.4,0.5L481.2,105.2z M481.2,109.2l0.4-0.7l1.1,0.7l-0.4,0.5L481.2,109.2z"/>
	<path d="M503.8,146.4V21.3h23.5v10.6h-11.5v66h10v11.3h-10.2v25.7h11.7v11.5H503.8z M523.4,25.9h-14.2v115.6h14.2V140h-12.8v-35.7
		h10.8v-1.5h-10.8V27.3h12.8V25.9z"/>
	<path d="M572,146.4L553.7,31.5l-0.7-8.2h-0.9L553,33v113.4h-2.2V21.3h3.3L572,134.7l1.1,10h1.1l-0.9-9.8V21.3h2.2v125.1H572z"/>
</g>
</svg>
